<svg xmlns="http://www.w3.org/2000/svg" viewBox="0 0 101.4 91.3" width="100%" height="100%" fill="currentColor"><path d="M99.8,36.1c-1-1-2.3-1.5-3.7-1.5c0,0,0,0,0,0h-5.6C89.8,25,84,16.7,75.8,13.8c-1.5-2.1-3.2-4.1-5.2-5.9c-0.8-0.7-2.1-0.7-2.8,0.1c-0.7,0.8-0.7,2.1,0.1,2.8c1.9,1.7,3.5,3.6,4.9,5.7c0.3,0.4,0.6,0.6,1,0.8c6.9,2.2,11.8,9.1,12.5,17.2H37c-1.1,0-2,0.9-2,2v10.4c0,2.2-1.8,4.1-4.1,4.1c-2.2,0-4.1-1.8-4.1-4.1V36.6c0-1.1-0.9-2-2-2h-11C14.6,26,20,18.8,27.4,17.1c0.5-0.1,0.9-0.4,1.2-0.8C33.9,8.5,42,4,50.6,4c1.6,0,3.2,0.1,8.1,1.4C59.8,5.7,60.9,5,61.1,4c0.3-1.1-0.4-2.2-1.4-2.4C54.8,0.2,52.8,0,50.6,0c-9.7,0-18.8,4.9-24.9,13.4C17,15.9,10.6,24.5,9.8,34.6H5.3c-1.4,0-2.7,0.5-3.7,1.5c-1,1-1.5,2.3-1.5,3.7v18.1c0,2.9,2.4,5.3,5.3,5.3h3c4,0,7.4,2.7,8.3,6.7c1,4.6,2.3,10.2,3.2,14.3c0.9,4.2,4.6,7.1,8.9,7.1c0,0,0,0,0,0h44.1c0,0,0,0,0,0c4.3,0,7.9-2.9,8.9-7.1l1.3-5.6c0.6-2.9,1.3-6,1.9-8.7c0.9-3.9,4.3-6.7,8.3-6.7h3c1.4,0,2.7-0.5,3.7-1.5c1-1,1.5-2.3,1.5-3.7V39.8C101.4,38.4,100.8,37.1,99.8,36.1z M97.4,57.9L97.4,57.9c0,0.3-0.1,0.7-0.4,0.9c-0.2,0.2-0.6,0.4-0.9,0.4h-3c-5.9,0-10.9,4-12.2,9.8c-0.6,2.7-1.3,5.8-1.9,8.7l-1.3,5.6c-0.5,2.3-2.6,4-5,4c0,0,0,0,0,0H28.6c0,0,0,0,0,0c-2.4,0-4.4-1.6-5-4c-0.9-4.1-2.2-9.7-3.2-14.3c-1.3-5.8-6.3-9.8-12.2-9.8h-3c-0.7,0-1.3-0.6-1.3-1.3v-18c0-0.3,0.1-0.7,0.4-0.9c0.2-0.2,0.6-0.4,0.9-0.4h17.6v8.4c0,4.4,3.6,8.1,8.1,8.1c4.4,0,8.1-3.6,8.1-8.1v-8.4h57.1h0c0.3,0,0.7,0.1,0.9,0.4c0.2,0.2,0.4,0.6,0.4,0.9V57.9z"/><path d="M42.6,23.6c-0.9-0.6-2.2-0.3-2.8,0.6s-0.3,2.2,0.6,2.8l3.3,2.1c0.3,0.2,0.7,0.3,1.1,0.3c0.7,0,1.3-0.3,1.7-0.9c0.6-0.9,0.3-2.2-0.6-2.8L42.6,23.6z"/><path d="M68.3,27.2c0.1,0,0.3,0,0.4,0l2-0.4c1.1-0.2,1.8-1.3,1.5-2.4c-0.2-1.1-1.3-1.8-2.4-1.5l-2,0.4c-1.1,0.2-1.8,1.3-1.5,2.4C66.6,26.6,67.4,27.2,68.3,27.2z"/><path d="M75.4,71.2c-1.1-0.2-2.1,0.5-2.3,1.6l-1.2,6.1c-0.4,2-2.1,3.4-4.2,3.4h0H65c-1.1,0-2,0.9-2,2s0.9,2,2,2h2.7c0,0,0,0,0,0c3.9,0,7.3-2.8,8.1-6.7l1.2-6C77.2,72.5,76.5,71.4,75.4,71.2z"/></svg>