<svg xmlns="http://www.w3.org/2000/svg" viewBox="0 0 1080 1080" width="100%" height="100%" fil="currentColor"><path d="m1080,540c0,36.55-3.67,73.01-10.97,108.83-14.15,69.08-41.76,134.69-81.26,193.1-58.61,86.82-141.13,154.77-237.58,195.64-32.67,13.81-66.62,24.35-101.37,31.47-71.81,14.63-145.83,14.63-217.65,0-69.08-14.15-134.69-41.76-193.1-81.26-86.82-58.61-154.77-141.13-195.64-237.58-13.81-32.67-24.35-66.62-31.47-101.37-14.63-71.81-14.63-145.83,0-217.65,14.15-69.08,41.76-134.69,81.26-193.1,58.6-86.82,141.13-154.77,237.57-195.64,32.67-13.81,66.62-24.35,101.37-31.47,71.81-14.63,145.83-14.63,217.65,0,69.08,14.15,134.69,41.76,193.1,81.26,86.82,58.61,154.77,141.13,195.64,237.58,13.81,32.67,24.35,66.63,31.47,101.37,7.3,35.81,10.98,72.27,10.97,108.82Zm-1068.91,0c0,35.8,3.59,71.52,10.74,106.6,13.86,67.65,40.9,131.91,79.58,189.12,57.4,85.04,138.24,151.6,232.71,191.63,31.99,13.52,65.25,23.85,99.27,30.82,70.34,14.33,142.85,14.33,213.2,0,67.65-13.86,131.91-40.9,189.12-79.58,85.03-57.41,151.59-138.24,191.62-232.71,13.52-31.99,23.85-65.25,30.82-99.27,14.33-70.34,14.33-142.85,0-213.2-13.85-67.65-40.89-131.91-79.57-189.12-57.41-85.03-138.24-151.59-232.71-191.62-31.99-13.53-65.25-23.86-99.28-30.83-70.34-14.33-142.85-14.33-213.2,0-67.65,13.86-131.91,40.9-189.12,79.58-85.04,57.4-151.6,138.24-191.63,232.71-13.52,31.99-23.85,65.25-30.82,99.27-7.15,35.08-10.75,70.8-10.74,106.6Z"/><path d="m72.25,475.92l50.4,3.83-.93,12.28-30.23-2.29,29.37,13.57-.75,9.91-31.16,9.04,30.3,2.3-.93,12.28-50.4-3.82,1.1-14.5,35.96-11.5-33.83-16.65,1.1-14.43Z"/><path d="m128.73,438.09c-3.2,3.21-7.02,5.4-11.46,6.57-4.44,1.17-9.04,1.08-13.8-.26-4.76-1.34-8.72-3.66-11.88-6.97-3.16-3.31-5.26-7.17-6.32-11.58-1.05-4.41-.93-8.9.35-13.48s3.53-8.47,6.73-11.68c3.2-3.21,7-5.38,11.41-6.51,4.41-1.13,8.99-1.02,13.75.32,4.76,1.34,8.73,3.65,11.92,6.95s5.31,7.13,6.37,11.52c1.06,4.39.94,8.87-.34,13.44s-3.53,8.47-6.73,11.68Zm-5.34-25.14c-1.93-3.06-5.02-5.19-9.27-6.39-4.3-1.21-8.06-1.01-11.28.6-3.22,1.61-5.38,4.36-6.47,8.24-1.11,3.93-.72,7.42,1.17,10.46,1.88,3.05,5,5.18,9.34,6.41,4.3,1.21,8.06,1.01,11.28-.6,3.22-1.61,5.38-4.38,6.49-8.31,1.09-3.88.67-7.35-1.26-10.41Z"/><path d="m124.84,323.82c3.66-2.64,7.68-4.09,12.07-4.37,4.39-.27,8.82.7,13.3,2.9,4.44,2.19,7.89,5.11,10.37,8.76,2.48,3.66,3.78,7.75,3.9,12.28.12,4.53-.98,9.16-3.32,13.9l-8.37,16.99-45.34-22.34,8.37-16.99c2.36-4.78,5.36-8.49,9.02-11.13Zm27.8,18.03c-1.14-3.45-3.79-6.2-7.97-8.26-4.18-2.06-8-2.5-11.47-1.32-3.47,1.18-6.24,3.86-8.29,8.03l-2.58,5.23,26.35,12.99,2.58-5.23c2.06-4.18,2.52-7.99,1.38-11.44Z"/><path d="m162.66,274.94l8.32,5.94,9.58-13.42,7.74,5.52-9.58,13.42,9.02,6.44,10.83-15.18,8.03,5.73-17.99,25.2-41.14-29.37,17.99-25.2,8.03,5.73-10.83,15.18Z"/><path d="m227.98,244.34l11.12-11.69,6.89,6.55-19.6,20.61-36.62-34.84,8.49-8.92,29.73,28.29Z"/><path d="m273.7,210.93c-4.49.64-8.86.08-13.11-1.66-4.25-1.74-7.87-4.59-10.86-8.52-2.99-3.94-4.75-8.18-5.28-12.72-.53-4.54.12-8.89,1.94-13.04,1.82-4.15,4.62-7.67,8.4-10.54,3.78-2.87,7.92-4.63,12.41-5.27,4.49-.64,8.83-.08,13.03,1.68,4.2,1.76,7.79,4.6,10.78,8.54,2.99,3.94,4.77,8.18,5.33,12.73s-.06,8.89-1.86,13.03c-1.8,4.14-4.59,7.65-8.37,10.52-3.78,2.87-7.92,4.63-12.41,5.27Zm10.89-23.28c.3-3.61-.88-7.17-3.55-10.68-2.7-3.55-5.82-5.66-9.36-6.31-3.54-.65-6.92.24-10.13,2.68-3.25,2.47-5.04,5.49-5.37,9.06-.33,3.57.87,7.15,3.59,10.74,2.7,3.55,5.82,5.66,9.36,6.31,3.54.66,6.94-.25,10.19-2.72,3.21-2.44,4.97-5.46,5.27-9.07Z"/><path d="m391.75,137.03l-17.56,6.9.45,9.42-12,4.71-1.46-53.73,13.27-5.21,35.5,40.36-12.13,4.77-6.08-7.2Zm-6.42-7.69l-12.6-14.93,1,19.49,11.59-4.55Z"/><path d="m486.06,113.63l16-1.99,1.17,9.43-28.22,3.51-6.24-50.16,12.22-1.52,5.06,40.73Z"/><path d="m563.47,111.37l-18.85-.6-3.31,8.83-12.88-.41,19.89-49.93,14.25.46,16.66,51.1-13.03-.42-2.74-9.02Zm-2.86-9.6l-5.67-18.69-6.78,18.3,12.45.4Z"/><path d="m657.48,95.67c3.24-3.08,7.02-5.08,11.37-6.01,4.34-.92,8.85-.65,13.52.82,5.72,1.8,10.15,4.86,13.27,9.16,3.12,4.3,4.55,9.28,4.28,14.94l-12.91-4.07c-.33-2.32-1.21-4.28-2.64-5.89-1.43-1.61-3.27-2.77-5.51-3.47-3.62-1.14-6.94-.8-9.98,1.01-3.04,1.81-5.22,4.82-6.54,9.04-1.33,4.21-1.27,7.93.19,11.15,1.45,3.22,3.98,5.41,7.6,6.55,2.24.71,4.41.81,6.51.31,2.09-.5,3.94-1.6,5.54-3.31l12.91,4.07c-3.02,4.79-7.04,8.04-12.06,9.75-5.02,1.72-10.39,1.67-16.11-.13-4.67-1.47-8.52-3.83-11.55-7.07-3.03-3.24-4.99-7.04-5.88-11.4-.89-4.36-.59-8.92.91-13.68,1.5-4.76,3.87-8.68,7.1-11.77Z"/><path d="m749.35,165.03l-16.67-8.83-6.85,6.47-11.39-6.03,39.83-36.1,12.6,6.68-7.51,53.22-11.51-6.1,1.51-9.3Zm1.65-9.88l3.13-19.28-14.14,13.45,11.01,5.83Z"/><path d="m802.96,211.88l3.38-21.52-2.33-1.81-11.69,15.08-9.73-7.54,30.96-39.96,16.33,12.66c3.15,2.44,5.41,5.07,6.78,7.89,1.37,2.82,1.86,5.61,1.47,8.38-.38,2.77-1.49,5.33-3.31,7.68-2.06,2.66-4.65,4.45-7.76,5.37-3.12.93-6.47.69-10.07-.7l-3.04,22.97-10.99-8.51Zm6.38-30.22l6.03,4.67c1.78,1.38,3.46,1.98,5.03,1.8,1.57-.18,2.97-1.07,4.2-2.66,1.17-1.52,1.65-3.06,1.44-4.62-.22-1.56-1.22-3.04-3-4.42l-6.03-4.67-7.67,9.9Z"/><path d="m897.57,232.71l-7.2,6.74-9.15-9.77-29.69,27.81-8.42-8.99,29.69-27.81-9.15-9.77,7.2-6.74,26.72,28.54Z"/><path d="m919.01,277.06l-8.42,5.8,9.35,13.58-7.83,5.39-9.35-13.58-9.13,6.29,10.57,15.36-8.13,5.59-17.55-25.5,41.64-28.65,17.55,25.51-8.13,5.59-10.57-15.36Z"/><path d="m970.58,373.91l-9.56,3.64,5.87,15.41-8.88,3.38-5.87-15.41-10.36,3.95,6.64,17.43-9.22,3.51-11.02-28.93,47.24-17.98,11.02,28.93-9.22,3.51-6.63-17.43Z"/><path d="m1012.08,524.91l-50.33,4.69-1.14-12.26,30.18-2.81-31.23-8.44-.92-9.89,29.2-14.15-30.25,2.82-1.14-12.26,50.33-4.69,1.35,14.48-33.53,17.37,36.14,10.73,1.34,14.41Z"/><path d="m962.81,571.72c2.6-3.71,5.99-6.52,10.17-8.43,4.18-1.91,8.73-2.61,13.64-2.1,4.92.51,9.21,2.12,12.89,4.84,3.68,2.72,6.41,6.16,8.2,10.33,1.79,4.17,2.44,8.61,1.95,13.34s-2.04,8.95-4.64,12.66c-2.6,3.71-5.98,6.5-10.13,8.36-4.15,1.86-8.68,2.54-13.6,2.03-4.92-.51-9.23-2.11-12.93-4.81-3.7-2.7-6.45-6.12-8.24-10.26-1.79-4.14-2.44-8.58-1.96-13.3s2.03-8.95,4.64-12.66Zm9.55,23.86c2.42,2.69,5.83,4.26,10.23,4.71,4.44.46,8.11-.38,11.01-2.52,2.9-2.14,4.56-5.21,4.97-9.22.42-4.06-.56-7.43-2.94-10.11-2.38-2.68-5.81-4.26-10.3-4.72-4.44-.46-8.11.38-11.01,2.52-2.9,2.14-4.56,5.24-4.98,9.29-.41,4.01.59,7.36,3.02,10.05Z"/><path d="m986.19,683.62c-3.15,3.23-6.86,5.35-11.14,6.37-4.28,1.02-8.81.82-13.6-.58-4.74-1.39-8.65-3.68-11.72-6.86-3.07-3.18-5.05-6.99-5.95-11.43-.9-4.44-.6-9.19.89-14.26l5.34-18.17,48.49,14.26-5.34,18.17c-1.5,5.11-3.83,9.28-6.98,12.51Zm-30.47-13.01c1.71,3.21,4.8,5.46,9.26,6.78,4.47,1.31,8.31,1.09,11.53-.66s5.48-4.87,6.8-9.33l1.65-5.59-28.18-8.29-1.64,5.59c-1.31,4.47-1.12,8.3.59,11.51Z"/><path d="m957.25,738.29l-9.21-4.44-7.16,14.85-8.56-4.13,7.16-14.85-9.99-4.81-8.09,16.8-8.89-4.28,13.44-27.89,45.53,21.94-13.44,27.89-8.89-4.28,8.09-16.8Z"/><path d="m898.08,779.52l-8.98,13.4-7.9-5.29,15.83-23.63,41.99,28.13-6.85,10.23-34.1-22.84Z"/><path d="m858.68,820.17c4.32-1.39,8.72-1.58,13.2-.58,4.48,1,8.53,3.19,12.15,6.56,3.61,3.37,6.06,7.25,7.35,11.64,1.29,4.39,1.39,8.78.3,13.18s-3.25,8.34-6.5,11.81c-3.24,3.47-7.02,5.9-11.34,7.29-4.32,1.39-8.69,1.57-13.12.55-4.43-1.02-8.46-3.22-12.07-6.59-3.61-3.38-6.08-7.25-7.4-11.64-1.32-4.39-1.45-8.77-.38-13.16,1.07-4.38,3.23-8.31,6.47-11.79,3.24-3.47,7.02-5.9,11.34-7.29Zm-6.79,24.79c.31,3.6,2.08,6.92,5.31,9.93,3.26,3.05,6.7,4.59,10.3,4.64,3.6.05,6.78-1.4,9.53-4.35,2.78-2.98,4.04-6.26,3.76-9.83-.28-3.57-2.06-6.9-5.36-9.98-3.26-3.05-6.69-4.59-10.3-4.64-3.6-.05-6.79,1.42-9.58,4.4-2.75,2.95-3.97,6.22-3.66,9.83Z"/><path d="m770.5,894.5c3.12-.53,6.04-.25,8.77.82,2.73,1.07,5.01,2.99,6.84,5.75l-11.13,6.92c-1.15-1.49-2.46-2.36-3.91-2.61-1.46-.25-2.94.09-4.45,1.03-1.55.96-2.55,2.08-3,3.35-.45,1.27-.29,2.54.5,3.8.66,1.06,1.56,1.71,2.7,1.96,1.14.25,2.38.28,3.69.08,1.32-.2,3.11-.61,5.38-1.23,3.31-.87,6.1-1.42,8.38-1.65,2.29-.23,4.58.09,6.88.98,2.3.89,4.29,2.67,5.96,5.37,2.48,4,2.98,8.02,1.49,12.08-1.49,4.06-4.56,7.54-9.2,10.42-4.73,2.94-9.24,4.18-13.54,3.71s-7.81-2.65-10.52-6.56l11.31-7.03c.94,1.33,2.13,2.11,3.56,2.32,1.43.21,2.88-.14,4.35-1.05,1.26-.79,2.08-1.75,2.43-2.91.36-1.15.14-2.36-.64-3.63-.86-1.39-2.18-2.06-3.97-2.03-1.79.04-4.34.47-7.67,1.29-3.36.78-6.16,1.29-8.43,1.51-2.26.22-4.54-.09-6.81-.94-2.28-.85-4.21-2.55-5.81-5.12-1.52-2.45-2.28-5.06-2.28-7.83,0-2.77.82-5.48,2.45-8.13,1.63-2.65,4.06-4.98,7.28-6.98,3.14-1.95,6.27-3.19,9.39-3.71Z"/><path d="m723.41,964.28l-4.01-9.41-15.17,6.47-3.73-8.74,15.17-6.46-4.35-10.2-17.16,7.31-3.87-9.07,28.48-12.14,19.82,46.5-28.48,12.14-3.87-9.07,17.16-7.31Z"/><path d="m651.7,956.34l-15.58,4.16-2.45-9.18,27.48-7.33,13.03,48.84-11.9,3.17-10.58-39.65Z"/><path d="m578.8,1010.75l-1.17-9.79,20.45-2.43-1.26-10.58-15.3,1.82-1.13-9.51,15.3-1.82-2.42-20.3,12.23-1.46,5.98,50.19-32.67,3.89Z"/><path d="m511.81,991.19l.31-10.22,31.67.95-.31,10.22-31.67-.95Z"/><path d="m471.03,957.22c2.66,1.72,4.63,3.9,5.92,6.53,1.29,2.63,1.68,5.59,1.16,8.86l-12.88-2.41c.16-1.88-.22-3.4-1.12-4.57-.9-1.17-2.23-1.92-3.97-2.25-1.79-.34-3.29-.19-4.48.44-1.19.63-1.93,1.68-2.2,3.14-.23,1.23,0,2.32.67,3.27.68.96,1.57,1.81,2.67,2.55,1.11.74,2.71,1.65,4.8,2.73,3.02,1.59,5.46,3.07,7.3,4.44,1.84,1.37,3.32,3.16,4.41,5.37,1.1,2.21,1.36,4.87.77,7.98-.87,4.62-3.22,7.93-7.06,9.92-3.84,1.99-8.45,2.48-13.83,1.47-5.47-1.03-9.64-3.16-12.5-6.41-2.86-3.25-3.97-7.23-3.33-11.94l13.09,2.45c-.21,1.62.15,2.99,1.06,4.12.91,1.12,2.22,1.84,3.92,2.16,1.46.27,2.72.11,3.76-.5,1.04-.61,1.7-1.65,1.97-3.11.3-1.6-.22-3-1.56-4.17-1.34-1.18-3.52-2.59-6.53-4.23-3-1.69-5.42-3.21-7.24-4.58-1.82-1.37-3.28-3.13-4.39-5.29-1.11-2.16-1.38-4.73-.83-7.7.53-2.83,1.73-5.27,3.6-7.31,1.87-2.04,4.31-3.49,7.3-4.35,2.99-.86,6.35-.93,10.08-.24,3.63.68,6.78,1.88,9.43,3.6Z"/><path d="m389.16,976.88l3.4-9.64-15.55-5.48,3.16-8.96,15.55,5.48,3.69-10.46-17.59-6.2,3.28-9.3,29.2,10.29-16.81,47.67-29.2-10.29,3.28-9.3,17.59,6.2Z"/><path d="m334.35,907.87l.18,21.78,2.6,1.4,9.07-16.79,10.83,5.85-24.03,44.47-18.18-9.82c-3.5-1.89-6.16-4.12-7.97-6.68-1.81-2.56-2.75-5.24-2.82-8.03-.07-2.79.6-5.5,2.01-8.12,1.6-2.96,3.86-5.15,6.78-6.57,2.92-1.42,6.27-1.74,10.05-.95l-.75-23.15,12.23,6.61Zm-1.37,30.85l-6.71-3.63c-1.98-1.07-3.73-1.39-5.25-.96-1.52.44-2.75,1.54-3.71,3.31-.91,1.69-1.13,3.29-.67,4.8.47,1.51,1.69,2.8,3.68,3.87l6.71,3.63,5.96-11.02Z"/><path d="m228.67,895.39l45.35-28.63,12.11,9.53-17.17,50.81-10.3-8.1,13.75-37.74-33.5,22.2-10.24-8.06Z"/><path d="m195.16,861.95l36.52-34.94,8.51,8.9-36.53,34.94-8.51-8.9Z"/><path d="m178.37,824.9c-4.44.51-8.67-.17-12.69-2.05-4.02-1.88-7.45-4.81-10.3-8.8-3.48-4.88-5.18-9.99-5.08-15.3.1-5.32,1.96-10.15,5.58-14.5l7.86,11.02c-1.13,2.05-1.61,4.14-1.44,6.29.17,2.15.94,4.18,2.31,6.09,2.2,3.09,5.06,4.82,8.58,5.2,3.52.38,7.07-.71,10.67-3.27,3.6-2.56,5.79-5.57,6.57-9.02.78-3.45.08-6.71-2.13-9.8-1.37-1.91-3.03-3.3-5.01-4.17-1.97-.86-4.11-1.09-6.42-.69l-7.86-11.02c5.29-2,10.46-2.18,15.5-.53,5.04,1.65,9.3,4.92,12.79,9.81,2.84,3.99,4.5,8.19,4.96,12.6.47,4.41-.26,8.63-2.17,12.64-1.91,4.02-4.9,7.47-8.96,10.37-4.06,2.9-8.32,4.6-12.76,5.12Z"/><path d="m126.39,745.41l9.19-4.49-7.24-14.81,8.54-4.17,7.24,14.81,9.96-4.87-8.19-16.75,8.86-4.33,13.59,27.82-45.41,22.19-13.59-27.82,8.86-4.33,8.19,16.75Z"/><path d="m99.91,616.75l22.49,14.44-14.51,22.51-22.44-14.53,14.46-22.42Zm5.43,25.12l5.31-8.14-8.2-5.23-5.24,8.13,8.13,5.24Z"/></svg>