<svg xmlns="http://www.w3.org/2000/svg" viewBox="0 0 81.8 107.8" width="100%" height="100%" fill="currentColor"><path d="M74.7,9.5h-4.9V6.7c0-3.8-3.1-6.9-6.9-6.9h-44c-3.8,0-6.9,3.1-6.9,6.9v2.8H7.2c-4.1,0-7.3,3.3-7.3,7.3v3.8c0,3.5,2.5,6.5,5.9,7.2l6.8,73.9c0.3,3.6,3.3,6.2,6.8,6.2h43.2c3.6,0,6.5-2.7,6.8-6.2l6.8-73.9c3.3-0.7,5.9-3.7,5.9-7.2v-3.8C82,12.8,78.7,9.5,74.7,9.5z M16.1,6.7c0-1.6,1.3-2.9,2.9-2.9h44c1.6,0,2.9,1.3,2.9,2.9v2.8H16.1V6.7z M65.4,101.3c-0.1,1.5-1.4,2.6-2.9,2.6H19.3c-1.5,0-2.7-1.1-2.9-2.6L9.7,28h62.4L65.4,101.3z M78,20.6c0,1.8-1.5,3.4-3.4,3.4h-0.4H7.5H7.2c-1.8,0-3.3-1.5-3.3-3.4v-3.8c0-1.8,1.5-3.3,3.3-3.3h6.9h53.7h6.9c1.8,0,3.4,1.5,3.4,3.4V20.6z"/></svg>