<svg xmlns="http://www.w3.org/2000/svg" width="100%" height="100%" viewBox="0 0 194.811 194.81" fill="currentColor"><g transform="translate(8900.026 2602.526)"><path d="M96.405-1A98.12,98.12,0,0,1,116.035.979a96.878,96.878,0,0,1,34.831,14.657A97.686,97.686,0,0,1,186.155,58.49a96.92,96.92,0,0,1,5.676,18.285,98.346,98.346,0,0,1,0,39.259,96.878,96.878,0,0,1-14.657,34.831,97.686,97.686,0,0,1-42.854,35.289,96.92,96.92,0,0,1-18.285,5.676,98.346,98.346,0,0,1-39.259,0,96.878,96.878,0,0,1-34.831-14.657A97.686,97.686,0,0,1,6.655,134.32,96.92,96.92,0,0,1,.979,116.035a98.346,98.346,0,0,1,0-39.259A96.878,96.878,0,0,1,15.636,41.944,97.686,97.686,0,0,1,58.49,6.655,96.92,96.92,0,0,1,76.776.979,98.12,98.12,0,0,1,96.405-1Zm0,192.81a96.117,96.117,0,0,0,19.229-1.938,94.877,94.877,0,0,0,34.113-14.355,95.686,95.686,0,0,0,34.567-41.976,94.918,94.918,0,0,0,5.559-17.907,96.346,96.346,0,0,0,0-38.457,94.878,94.878,0,0,0-14.355-34.113A95.687,95.687,0,0,0,133.541,8.5a94.918,94.918,0,0,0-17.907-5.559,96.346,96.346,0,0,0-38.457,0A94.878,94.878,0,0,0,43.064,17.293,95.686,95.686,0,0,0,8.5,59.269,94.918,94.918,0,0,0,2.938,77.177a96.346,96.346,0,0,0,0,38.457,94.877,94.877,0,0,0,14.355,34.113,95.686,95.686,0,0,0,41.976,34.567,94.918,94.918,0,0,0,17.907,5.559A96.117,96.117,0,0,0,96.405,191.81Z" transform="translate(-8706.216 -2601.526) rotate(90)"/><path d="M.363-3.872a4.151,4.151,0,0,1,.5-2.041,3.538,3.538,0,0,1,1.381-1.4,4.008,4.008,0,0,1,2.008-.5A3.841,3.841,0,0,1,6.6-7.084,3.487,3.487,0,0,1,7.909-5.1H5.841a1.67,1.67,0,0,0-.655-.737,1.84,1.84,0,0,0-.963-.253,1.8,1.8,0,0,0-1.408.605,2.341,2.341,0,0,0-.539,1.617,2.341,2.341,0,0,0,.539,1.617,1.8,1.8,0,0,0,1.408.6A1.84,1.84,0,0,0,5.187-1.9a1.67,1.67,0,0,0,.655-.737H7.909A3.461,3.461,0,0,1,6.6-.665a3.861,3.861,0,0,1-2.354.72,4.008,4.008,0,0,1-2.008-.5A3.548,3.548,0,0,1,.858-1.837,4.119,4.119,0,0,1,.363-3.872Z" transform="matrix(0.777, -0.629, 0.629, 0.777, -8853.797, -2559.958)"/><path d="M7.37-7.722V0H5.489V-3.179H2.563V0H.682V-7.722H2.563V-4.7H5.489V-7.722Z" transform="matrix(0.892, -0.452, 0.452, 0.892, -8840.932, -2569.63)"/><path d="M3.94.07A3.664,3.664,0,0,1,2.125-.39,3.439,3.439,0,0,1,.815-1.675,3.591,3.591,0,0,1,.33-3.53,3.565,3.565,0,0,1,.815-5.38a3.45,3.45,0,0,1,1.31-1.28A3.664,3.664,0,0,1,3.94-7.12a3.664,3.664,0,0,1,1.815.46,3.377,3.377,0,0,1,1.3,1.28A3.623,3.623,0,0,1,7.53-3.53a3.62,3.62,0,0,1-.48,1.855A3.413,3.413,0,0,1,5.75-.39,3.636,3.636,0,0,1,3.94.07Zm0-1.56a1.723,1.723,0,0,0,1.345-.56,2.126,2.126,0,0,0,.5-1.48,2.122,2.122,0,0,0-.5-1.485A1.73,1.73,0,0,0,3.94-5.57a1.75,1.75,0,0,0-1.355.55A2.118,2.118,0,0,0,2.08-3.53a2.122,2.122,0,0,0,.505,1.485A1.742,1.742,0,0,0,3.94-1.49Z" transform="matrix(0.967, -0.253, 0.253, 0.967, -8826.985, -2577.201)"/><path d="M.363-3.872a4.151,4.151,0,0,1,.5-2.041,3.538,3.538,0,0,1,1.381-1.4,4.008,4.008,0,0,1,2.008-.5A3.841,3.841,0,0,1,6.6-7.084,3.487,3.487,0,0,1,7.909-5.1H5.841a1.67,1.67,0,0,0-.655-.737,1.84,1.84,0,0,0-.963-.253,1.8,1.8,0,0,0-1.408.605,2.341,2.341,0,0,0-.539,1.617,2.341,2.341,0,0,0,.539,1.617,1.8,1.8,0,0,0,1.408.6A1.84,1.84,0,0,0,5.187-1.9a1.67,1.67,0,0,0,.655-.737H7.909A3.461,3.461,0,0,1,6.6-.665a3.861,3.861,0,0,1-2.354.72,4.008,4.008,0,0,1-2.008-.5A3.548,3.548,0,0,1,.858-1.837,4.119,4.119,0,0,1,.363-3.872Z" transform="translate(-8810.691 -2579.824) rotate(-2.345)"/><path d="M3.94.07A3.664,3.664,0,0,1,2.125-.39,3.439,3.439,0,0,1,.815-1.675,3.591,3.591,0,0,1,.33-3.53,3.565,3.565,0,0,1,.815-5.38a3.45,3.45,0,0,1,1.31-1.28A3.664,3.664,0,0,1,3.94-7.12a3.664,3.664,0,0,1,1.815.46,3.377,3.377,0,0,1,1.3,1.28A3.623,3.623,0,0,1,7.53-3.53a3.62,3.62,0,0,1-.48,1.855A3.413,3.413,0,0,1,5.75-.39,3.636,3.636,0,0,1,3.94.07Zm0-1.56a1.723,1.723,0,0,0,1.345-.56,2.126,2.126,0,0,0,.5-1.48,2.122,2.122,0,0,0-.5-1.485A1.73,1.73,0,0,0,3.94-5.57a1.75,1.75,0,0,0-1.355.55A2.118,2.118,0,0,0,2.08-3.53a2.122,2.122,0,0,0,.505,1.485A1.742,1.742,0,0,0,3.94-1.49Z" transform="matrix(0.985, 0.174, -0.174, 0.985, -8794.412, -2580.921)"/><path d="M2.33-1.32H4.57V0H.62V-7.02H2.33Z" transform="translate(-8779.001 -2578) rotate(20.908)"/><path d="M5.489-1.364H2.607L2.145,0H.176L2.97-7.722H5.148L7.942,0H5.951ZM5.005-2.816,4.048-5.643,3.1-2.816Z" transform="matrix(0.853, 0.523, -0.523, 0.853, -8767.444, -2571.803)"/><path d="M6.8-8.424V-6.78H4.572V0H2.52V-6.78H.288V-8.424Z" transform="translate(-8755.043 -2562.343) rotate(42.544)"/><path d="M2.8-6.78v1.7H5.544v1.584H2.8v1.848H5.9V0H.744V-8.424H5.9V-6.78Z" transform="matrix(0.606, 0.795, -0.795, 0.606, -8745.459, -2552.901)"/><path transform="translate(-8728.549 -2547.819) rotate(60.779)"/><path d="M5.844-4.32a1.959,1.959,0,0,1,1.176.726,2.061,2.061,0,0,1,.444,1.3A2.069,2.069,0,0,1,6.726-.618,3.113,3.113,0,0,1,4.668,0H.744V-8.424H4.536a3.109,3.109,0,0,1,2.01.588,1.945,1.945,0,0,1,.726,1.6A1.928,1.928,0,0,1,6.882-5,2.017,2.017,0,0,1,5.844-4.32ZM2.8-5.016H4.14a1.19,1.19,0,0,0,.774-.222.8.8,0,0,0,.27-.654.816.816,0,0,0-.27-.66A1.168,1.168,0,0,0,4.14-6.78H2.8Zm1.512,3.36a1.217,1.217,0,0,0,.8-.234.831.831,0,0,0,.282-.678.868.868,0,0,0-.294-.7,1.2,1.2,0,0,0-.81-.252H2.8v1.86Z" transform="matrix(0.351, 0.937, -0.937, 0.351, -8734.329, -2535.325)"/><path d="M2.8-6.78v1.7H5.544v1.584H2.8v1.848H5.9V0H.744V-8.424H5.9V-6.78Z" transform="translate(-8729.78 -2521.639) rotate(79.919)"/><path d="M2.33-1.32H4.57V0H.62V-7.02H2.33Z" transform="translate(-8727.482 -2509) rotate(89.352)"/><path d="M5.808-5.28a1.407,1.407,0,0,0-.6-.589,1.962,1.962,0,0,0-.918-.2,1.89,1.89,0,0,0-1.463.6,2.275,2.275,0,0,0-.55,1.6,2.3,2.3,0,0,0,.578,1.667,2.1,2.1,0,0,0,1.59.6,1.922,1.922,0,0,0,1.171-.352,2,2,0,0,0,.7-1.012H3.927V-4.356H8.019v1.749A3.69,3.69,0,0,1,7.309-1.3a3.743,3.743,0,0,1-1.27.979A3.927,3.927,0,0,1,4.3.055a4.114,4.114,0,0,1-2.041-.5,3.565,3.565,0,0,1-1.4-1.391,4.083,4.083,0,0,1-.5-2.035,4.114,4.114,0,0,1,.5-2.041,3.565,3.565,0,0,1,1.391-1.4,4.083,4.083,0,0,1,2.035-.5,3.953,3.953,0,0,1,2.338.671A3.167,3.167,0,0,1,7.887-5.28Z" transform="matrix(-0.174, 0.985, -0.985, -0.174, -8727.158, -2496.992)"/><path d="M5.489-1.364H2.607L2.145,0H.176L2.97-7.722H5.148L7.942,0H5.951ZM5.005-2.816,4.048-5.643,3.1-2.816Z" transform="translate(-8730.528 -2481.256) rotate(112.22)"/><path d="M.363-3.872a4.151,4.151,0,0,1,.5-2.041,3.538,3.538,0,0,1,1.381-1.4,4.008,4.008,0,0,1,2.008-.5A3.841,3.841,0,0,1,6.6-7.084,3.487,3.487,0,0,1,7.909-5.1H5.841a1.67,1.67,0,0,0-.655-.737,1.84,1.84,0,0,0-.963-.253,1.8,1.8,0,0,0-1.408.605,2.341,2.341,0,0,0-.539,1.617,2.341,2.341,0,0,0,.539,1.617,1.8,1.8,0,0,0,1.408.6A1.84,1.84,0,0,0,5.187-1.9a1.67,1.67,0,0,0,.655-.737H7.909A3.461,3.461,0,0,1,6.6-.665a3.861,3.861,0,0,1-2.354.72,4.008,4.008,0,0,1-2.008-.5A3.548,3.548,0,0,1,.858-1.837,4.119,4.119,0,0,1,.363-3.872Z" transform="translate(-8751.445 -2450.284) rotate(140.993)"/><path d="M7.37-7.722V0H5.489V-3.179H2.563V0H.682V-7.722H2.563V-4.7H5.489V-7.722Z" transform="translate(-8764.312 -2440.612) rotate(153.15)"/><path d="M3.94.07A3.664,3.664,0,0,1,2.125-.39,3.439,3.439,0,0,1,.815-1.675,3.591,3.591,0,0,1,.33-3.53,3.565,3.565,0,0,1,.815-5.38a3.45,3.45,0,0,1,1.31-1.28A3.664,3.664,0,0,1,3.94-7.12a3.664,3.664,0,0,1,1.815.46,3.377,3.377,0,0,1,1.3,1.28A3.623,3.623,0,0,1,7.53-3.53a3.62,3.62,0,0,1-.48,1.855A3.413,3.413,0,0,1,5.75-.39,3.636,3.636,0,0,1,3.94.07Zm0-1.56a1.723,1.723,0,0,0,1.345-.56,2.126,2.126,0,0,0,.5-1.48,2.122,2.122,0,0,0-.5-1.485A1.73,1.73,0,0,0,3.94-5.57a1.75,1.75,0,0,0-1.355.55A2.118,2.118,0,0,0,2.08-3.53a2.122,2.122,0,0,0,.505,1.485A1.742,1.742,0,0,0,3.94-1.49Z" transform="matrix(-0.967, 0.253, -0.253, -0.967, -8778.257, -2433.041)"/><path d="M.363-3.872a4.151,4.151,0,0,1,.5-2.041,3.538,3.538,0,0,1,1.381-1.4,4.008,4.008,0,0,1,2.008-.5A3.841,3.841,0,0,1,6.6-7.084,3.487,3.487,0,0,1,7.909-5.1H5.841a1.67,1.67,0,0,0-.655-.737,1.84,1.84,0,0,0-.963-.253,1.8,1.8,0,0,0-1.408.605,2.341,2.341,0,0,0-.539,1.617,2.341,2.341,0,0,0,.539,1.617,1.8,1.8,0,0,0,1.408.6A1.84,1.84,0,0,0,5.187-1.9a1.67,1.67,0,0,0,.655-.737H7.909A3.461,3.461,0,0,1,6.6-.665a3.861,3.861,0,0,1-2.354.72,4.008,4.008,0,0,1-2.008-.5A3.548,3.548,0,0,1,.858-1.837,4.119,4.119,0,0,1,.363-3.872Z" transform="translate(-8794.551 -2430.418) rotate(177.655)"/><path d="M3.94.07A3.664,3.664,0,0,1,2.125-.39,3.439,3.439,0,0,1,.815-1.675,3.591,3.591,0,0,1,.33-3.53,3.565,3.565,0,0,1,.815-5.38a3.45,3.45,0,0,1,1.31-1.28A3.664,3.664,0,0,1,3.94-7.12a3.664,3.664,0,0,1,1.815.46,3.377,3.377,0,0,1,1.3,1.28A3.623,3.623,0,0,1,7.53-3.53a3.62,3.62,0,0,1-.48,1.855A3.413,3.413,0,0,1,5.75-.39,3.636,3.636,0,0,1,3.94.07Zm0-1.56a1.723,1.723,0,0,0,1.345-.56,2.126,2.126,0,0,0,.5-1.48,2.122,2.122,0,0,0-.5-1.485A1.73,1.73,0,0,0,3.94-5.57a1.75,1.75,0,0,0-1.355.55A2.118,2.118,0,0,0,2.08-3.53a2.122,2.122,0,0,0,.505,1.485A1.742,1.742,0,0,0,3.94-1.49Z" transform="translate(-8810.83 -2429.322) rotate(-169.98)"/><path d="M2.33-1.32H4.57V0H.62V-7.02H2.33Z" transform="translate(-8827 -2433.001) rotate(-159.091)"/><path d="M5.489-1.364H2.607L2.145,0H.176L2.97-7.722H5.148L7.942,0H5.951ZM5.005-2.816,4.048-5.643,3.1-2.816Z" transform="matrix(-0.853, -0.523, 0.523, -0.853, -8837.798, -2438.439)"/><path d="M6.8-8.424V-6.78H4.572V0H2.52V-6.78H.288V-8.424Z" transform="translate(-8850.199 -2447.899) rotate(-137.456)"/><path d="M2.8-6.78v1.7H5.544v1.584H2.8v1.848H5.9V0H.744V-8.424H5.9V-6.78Z" transform="matrix(-0.606, -0.795, 0.795, -0.606, -8859.783, -2457.341)"/><path transform="translate(-8876.693 -2462.423) rotate(-119.221)"/><path d="M5.844-4.32a1.959,1.959,0,0,1,1.176.726,2.061,2.061,0,0,1,.444,1.3A2.069,2.069,0,0,1,6.726-.618,3.113,3.113,0,0,1,4.668,0H.744V-8.424H4.536a3.109,3.109,0,0,1,2.01.588,1.945,1.945,0,0,1,.726,1.6A1.928,1.928,0,0,1,6.882-5,2.017,2.017,0,0,1,5.844-4.32ZM2.8-5.016H4.14a1.19,1.19,0,0,0,.774-.222.8.8,0,0,0,.27-.654.816.816,0,0,0-.27-.66A1.168,1.168,0,0,0,4.14-6.78H2.8Zm1.512,3.36a1.217,1.217,0,0,0,.8-.234.831.831,0,0,0,.282-.678.868.868,0,0,0-.294-.7,1.2,1.2,0,0,0-.81-.252H2.8v1.86Z" transform="translate(-8870.913 -2474.917) rotate(-110.519)"/><path d="M2.8-6.78v1.7H5.544v1.584H2.8v1.848H5.9V0H.744V-8.424H5.9V-6.78Z" transform="matrix(-0.175, -0.985, 0.985, -0.175, -8875.462, -2488.604)"/><path d="M2.563-1.452H5.027V0H.682V-7.722H2.563Z" transform="translate(-8878.001 -2502.001) rotate(-90.648)"/><path d="M5.808-5.28a1.407,1.407,0,0,0-.6-.589,1.962,1.962,0,0,0-.918-.2,1.89,1.89,0,0,0-1.463.6,2.275,2.275,0,0,0-.55,1.6,2.3,2.3,0,0,0,.578,1.667,2.1,2.1,0,0,0,1.59.6,1.922,1.922,0,0,0,1.171-.352,2,2,0,0,0,.7-1.012H3.927V-4.356H8.019v1.749A3.69,3.69,0,0,1,7.309-1.3a3.743,3.743,0,0,1-1.27.979A3.927,3.927,0,0,1,4.3.055a4.114,4.114,0,0,1-2.041-.5,3.565,3.565,0,0,1-1.4-1.391,4.083,4.083,0,0,1-.5-2.035,4.114,4.114,0,0,1,.5-2.041,3.565,3.565,0,0,1,1.391-1.4,4.083,4.083,0,0,1,2.035-.5,3.953,3.953,0,0,1,2.338.671A3.167,3.167,0,0,1,7.887-5.28Z" transform="translate(-8878.084 -2513.25) rotate(-79.964)"/><path d="M5.489-1.364H2.607L2.145,0H.176L2.97-7.722H5.148L7.942,0H5.951ZM5.005-2.816,4.048-5.643,3.1-2.816Z" transform="translate(-8874.714 -2528.986) rotate(-67.78)"/><path class="b" d="M0,0H4.757V4.757H0Z" transform="translate(-8862.086 -2554.144) rotate(82)"/><path class="b" d="M0,0H4.757V4.757H0Z" transform="translate(-8739.478 -2461.751) rotate(82)"/></g></svg>