<svg xmlns="http://www.w3.org/2000/svg" width="100%" height="100%" viewBox="0 0 1861.147 284.41"><path d="M0,1215.59s.273,82.264,4.217,97.874c7.25,28.7,15.021,44.659,35.706,44.659a54.772,54.772,0,0,0,27.278-7.217c27.81-15.41,46.311-18.051,58.125-.944,10.072,14.562,23,29.124,18.1,59.513a116.056,116.056,0,0,1-4.3,17.458q-.15.5-.3.96c-12.926,41.943,24.757,50.568,33.568,25.108,8.86-25.668-11.6-33.669-5.675-65.978a36.432,36.432,0,0,1,2.422-8.145.667.667,0,0,0,.05-.144c9.873-22.323,38.7-14.274,45.813-3.12,7.882,12.37,13.077,50.647,42.645,42.086,4.464-1.3,5.724-2.945,8.793-5.617a35.025,35.025,0,0,0,4.812-5.137c.034-.064.083-.112.116-.176.1-.112.183-.224.266-.336.017-.016.017-.032.033-.032a79.658,79.658,0,0,0,7.683-13.394c6.985-14.562,12.776-30.308,31.244-33.541,32.506-5.7,28.291,37.654,55.4,38.15a27.04,27.04,0,0,0,2.821-.1h.133c20.459-1.712,26.382-25.172,35.658-39.734,3.617-5.665,7.715-10,13.39-11.17,28.042-5.824,35.045,13.555,38.794,31.205,6.472,30.548-8.512,75.227-8.512,89.453.033,39.622,31.3,37.974,42.3,15.106,3.518-7.281,4.978-16.722,2.7-27.668-3.336-16.146-13.474-59.192-14.221-86.716-.564-21.731-2.522-45.335,7.9-55.193a.048.048,0,0,1,.017-.032,17.109,17.109,0,0,1,8.977-4.384c51.637-9.234,17.9,79.8,31.477,104.943a16.1,16.1,0,0,0,8.114,7.361c12.677,5.281,32.456-4.128,35.575-21.427,3.2-17.73-12.66-49.159-7.7-69.53.016-.048.016-.1.033-.176a21.792,21.792,0,0,1,7.284-11.906c20.692-17.106,60.2,10.258,43.457,85.341C597.445,1478.077,603.452,1500,622.65,1500c12.81-.016,19.065-11.714,20.061-31.4v-.176c.548-10.945-.515-24.355-2.97-39.59-6.9-42.758-7.9-95.982,7.881-121.649a42.154,42.154,0,0,1,8.512-10.226l.034-.032c15.182-12.9,34.613-5.073,49.4,18.691,17.738,28.5,12.328,64.569,36.853,79.436,18,10.9,30.017,4.592,39.723-6.769a129.569,129.569,0,0,0,10.968-15.651c8.529-13.73,11.947-35.045,20.41-45.831a.421.421,0,0,1,.066-.112c3.252-4.1,7.234-6.641,12.528-6.641,29.834,0,26.482,57.465,44.22,66.026,17.738,8.545,36.455,2.849,44.336-18.067a42.985,42.985,0,0,0,1.51-5.3c.9-3.926,1.782-9.121,2.643-15.206a35.233,35.233,0,0,0,23.355,10.613c8.214.5,17.642-1.584,28.132-7.217,28.68-15.41,47.76-18.051,59.944-.944,10.387,14.562,23.717,29.124,18.669,59.513a113.14,113.14,0,0,1-4.432,17.458c-.1.336-.2.656-.308.96-13.33,41.943,25.531,50.568,34.618,25.108,9.137-25.668-11.962-33.669-5.853-65.978a35.613,35.613,0,0,1,2.5-8.145.719.719,0,0,0,.051-.144c10.182-22.323,39.905-14.274,47.246-3.12,8.129,12.37,13.486,50.647,43.98,42.086,4.6-1.3,5.9-2.945,9.068-5.617a35.564,35.564,0,0,0,4.962-5.137c.035-.064.086-.112.12-.176.1-.112.188-.224.274-.336.017-.016.017-.032.034-.032a79,79,0,0,0,7.923-13.394c7.2-14.562,13.176-30.308,32.222-33.541,33.523-5.7,29.176,37.654,57.137,38.15a28.737,28.737,0,0,0,2.909-.1h.137c21.1-1.712,27.209-25.172,36.774-39.734,3.73-5.665,7.957-10,13.81-11.17,28.919-5.824,36.14,13.555,40.007,31.205,6.674,30.548-8.778,75.227-8.778,89.453.034,39.622,32.273,37.974,43.619,15.106,3.628-7.281,5.133-16.722,2.789-27.668-3.439-16.146-13.9-59.192-14.665-86.716-.582-21.731-2.6-45.335,8.145-55.193a.048.048,0,0,1,.017-.032,17.863,17.863,0,0,1,9.258-4.384c53.253-9.234,18.464,79.8,32.462,104.943a16.437,16.437,0,0,0,8.367,7.361c13.074,5.281,33.472-4.128,36.689-21.427,3.3-17.73-13.057-49.159-7.94-69.53a1.762,1.762,0,0,0,.034-.176,21.691,21.691,0,0,1,7.512-11.906c21.339-17.106,62.083,10.258,44.817,85.341-17.284,75.083-11.089,97.006,8.709,97.006,13.211-.016,19.662-11.714,20.689-31.4v-.176c.565-10.945-.53-24.355-3.063-39.59-7.118-42.758-8.145-95.982,8.128-121.649a42.473,42.473,0,0,1,8.779-10.226l.034-.032c15.658-12.9,35.7-5.073,50.943,18.691,18.293,28.5,12.714,64.569,38.006,79.436,18.566,10.9,30.955,4.592,40.966-6.769a129.669,129.669,0,0,0,11.311-15.651c8.8-13.73,12.321-35.045,21.048-45.831a.44.44,0,0,1,.068-.112c3.354-4.1,7.461-6.641,12.92-6.641,30.768,0,28.11,55.932,45.6,66.026,25.555,14.746,48.391,4.435,56.519-16.48a42.034,42.034,0,0,0,1.557-5.3c7.513-31.877,3.356-148.712,3.356-148.712Z" transform="translate(0 -1215.59)" fill="currentColor"/></svg>