<svg xmlns="http://www.w3.org/2000/svg" viewBox="0 0 89.9 113.6" width="100%" height="100%" fill="currentColor"><path d="M88.1,25.3H53.3l4.6-21.5h7c1.1,0,2-0.9,2-2s-0.9-2-2-2h-8.6c-0.9,0-1.8,0.7-2,1.6l-5.1,23.9H1.8c-1.1,0-2,0.9-2,2s0.9,2,2,2h6.1l7.2,78c0.3,3.7,3.4,6.5,7.1,6.5c0,0,0,0,0,0h45.6c0,0,0,0,0,0c3.7,0,6.8-2.8,7.1-6.5l7.2-78h6.1c1.1,0,2-0.9,2-2S89.2,25.3,88.1,25.3z M70.9,106.9c-0.2,1.6-1.5,2.8-3.1,2.8h0H22.2c0,0,0,0,0,0c-1.6,0-3-1.2-3.1-2.8l-7.1-77.6H78L70.9,106.9z"/><path d="M53.7,106.1h7.3c3.6,0,6.7-2.7,7.1-6.3L70,83.5l-4-0.5l-1.9,16.2c-0.2,1.6-1.5,2.8-3.2,2.8h-7.3c-1.1,0-2,0.9-2,2S52.6,106.1,53.7,106.1z"/></svg>