<svg xmlns="http://www.w3.org/2000/svg" viewBox="0 0 116.3 116.3" width="100%" height="100%" fill="currentColor"><path d="M115.9,0.4c-0.8-0.8-2-0.8-2.8,0L88.6,24.9c-3.7-3-8.4-4.9-13.5-4.9C63.5,20.1,54,29.5,54,41.2c0,2.7,0.5,5.3,1.5,7.7c-1.1-0.2-2.2-0.2-3.3,0c-0.2-0.1-0.4-0.2-0.6-0.3c-1.4-0.4-2.8-0.7-4.3-0.7c-10.5-0.6-19.5,7.5-20.1,18C27,69.5,27.8,73,29.5,76c-2.6-1.2-5.5-1.8-8.5-1.8c-11.7,0-21.2,9.5-21.2,21.2c0,5.1,1.8,9.8,4.9,13.5l-2.9,2.9c-0.8,0.8-0.8,2,0,2.8c0.4,0.4,0.9,0.6,1.4,0.6s1-0.2,1.4-0.6l2.9-2.9c3.7,3,8.4,4.9,13.5,4.9c11.7,0,21.2-9.5,21.2-21.2c0-3.9-1.1-7.6-2.9-10.7c1.9,0.8,3.9,1.2,6,1.4c0,0,0.1,0,0.1,0c0.2,0,0.3,0,0.5-0.1c1,1.9,3,3.2,5.3,3.2c0,0,0.1,0,0.1,0c0.1,0,0.2,0,0.3,0c0.9-0.2,1.8-0.4,2.7-0.6l0,9.5c0,4.6,3.7,8.3,8.3,8.3c0,0,0,0,0,0c3.4,0,6.2-2.6,6.4-6c0.5-8.1,1.6-25.3,1.7-26.4c0.1-0.7,0.6-6.7-1.6-12.5c1.9,0.6,4,0.9,6.1,0.9c1.1,0,2.2-0.1,3.2-0.3v9.8c0,1.9,0.8,3.7,2.1,5.1c1.4,1.4,3.2,2.1,5.1,2.1c0,0,0,0,0,0c1.9,0,3.7-0.8,5.1-2.1s2.1-3.2,2.1-5.1v-19c2.2-3.3,3.5-7.3,3.5-11.6c0-5.1-1.8-9.8-4.9-13.5l24.5-24.5C116.7,2.4,116.7,1.2,115.9,0.4z M68.5,25.4c0.5,0.6,3,4.6-1,10.7c-3.3,5-3.8,12.5-3.7,17.9c-0.3-0.2-0.6-0.5-0.9-0.7c-3.1-3.1-5-7.4-5-12.1C58,34.1,62.3,28,68.5,25.4z M31.2,66.1c0.5-8.3,7.5-14.6,15.8-14.2c-2.4,2.8-4.8,8-3,16.6c1.3,6.4,1.8,10.3,1.6,12.6c-0.1,0.3-0.2,0.6-0.2,0.8c-4-0.3-7.6-2-10.3-5C32.3,74,31,70.1,31.2,66.1z M20.9,112.5c-9.5,0-17.2-7.7-17.2-17.2s7.7-17.2,17.2-17.2c9.5,0,17.2,7.7,17.2,17.2S30.4,112.5,20.9,112.5z M66.7,73.6c0,0,0,0.1,0,0.1c0,0-1.2,18.1-1.7,26.4c-0.1,1.3-1.1,2.2-2.4,2.2c0,0,0,0,0,0c-2.4,0-4.3-1.9-4.3-4.3l0-12.4c0-0.7-0.4-1.3-0.9-1.7c-0.3-0.2-0.7-0.3-1.1-0.3c-0.3,0-0.6,0.1-0.9,0.2c-1.4,0.7-2.8,1.1-4.4,1.4c-1,0-1.9-0.9-1.9-1.9c0-0.3,0-0.6,0.2-0.8c0.1-0.2,0.1-0.4,0.1-0.6c0.3-2.8-0.2-7-1.6-14.1c-1.2-5.8-0.4-10.5,2.3-13.4c1.5-1.6,4-2,5.9-0.9c1.5,0.9,2.9,1.9,4.4,3c0.5,0.5,1.1,1,1.7,1.5C67.8,63.7,66.7,73.5,66.7,73.6z M87.8,74.2c-0.6,0.6-1.4,0.9-2.3,0.9c0,0,0,0,0,0c-1.8,0-3.2-1.4-3.2-3.2V61.1c2.4-0.9,4.5-2.1,6.4-3.7v14.5C88.8,72.8,88.4,73.6,87.8,74.2z M75.1,58.4c-2.5,0-5-0.6-7.1-1.6c-0.3-4.7-0.4-13.5,2.9-18.6c4.3-6.5,2.8-11.5,1.6-14c0.9-0.1,1.7-0.2,2.6-0.2c9.5,0,17.2,7.7,17.2,17.2S84.6,58.4,75.1,58.4z"/><path d="M16.3,99.5l-3.4-1.4c-1-0.4-2.2,0.1-2.6,1.1c-0.4,1,0.1,2.2,1.1,2.6l3.4,1.4c0.2,0.1,0.5,0.1,0.7,0.1c0.8,0,1.5-0.5,1.9-1.3C17.9,101,17.4,99.9,16.3,99.5z"/><path d="M80.3,36.6c-1.1,0-2,0.9-2,2v2.6c0,1.1,0.9,2,2,2s2-0.9,2-2v-2.6C82.3,37.5,81.4,36.6,80.3,36.6z"/></svg>