<svg xmlns="http://www.w3.org/2000/svg" viewBox="0 0 101.5 97.2" width="100%" height="100%" fill="currentColor"><path d="M100,41.9c-1-1-2.3-1.5-3.7-1.5c0,0,0,0,0,0h-5.7c-0.7-9.6-6.5-17.9-14.6-20.8c-1.3-1.9-2.9-3.6-4.5-5.2L83.2,3.5c0.8-0.7,0.9-2,0.1-2.8c-0.7-0.8-2-0.9-2.8-0.1L59.2,20.1c-0.8,0.7-0.9,2-0.1,2.8c0.4,0.4,0.9,0.6,1.5,0.6c0.5,0,1-0.2,1.4-0.5l6.5-6c1.7,1.6,3.2,3.4,4.5,5.3c0.3,0.4,0.6,0.6,1,0.8c6.9,2.2,11.8,9.1,12.5,17.2H37c-1.1,0-2,0.9-2,2v10.4c0,2.2-1.8,4.1-4.1,4.1c-2.2,0-4.1-1.8-4.1-4.1V42.4c0-1.1-0.9-2-2-2H13.8c0.4-4.3,2-8.4,4.7-11.8c0.7-0.9,0.6-2.1-0.3-2.8c-0.9-0.7-2.1-0.6-2.8,0.3c-3.3,4.1-5.2,9.1-5.6,14.3H5.3c-2.9,0-5.3,2.4-5.3,5.3v18.1C0,66.6,2.4,69,5.3,69h3c4,0,7.5,2.8,8.3,6.7l1.1,5c0.7,3.3,1.5,6.6,2.1,9.3c0.9,4.2,4.6,7.1,8.9,7.1c0,0,0,0,0,0h44.2c0,0,0,0,0,0c4.3,0,7.9-2.9,8.9-7.1l1.4-6.1c0.6-2.8,1.3-5.7,1.8-8.3c0.9-3.9,4.3-6.7,8.3-6.7c0,0,0,0,0,0h3c2.9,0,5.3-2.4,5.3-5.3V45.6C101.5,44.2,101,42.9,100,41.9z M97.5,63.7C97.5,63.7,97.5,63.7,97.5,63.7c0,0.7-0.6,1.3-1.3,1.3h-3c0,0,0,0,0,0c-5.9,0-11,4-12.3,9.8c-0.6,2.6-1.2,5.5-1.8,8.3l-1.4,6.1c-0.5,2.3-2.6,4-5,4c0,0,0,0,0,0H28.7c0,0,0,0,0,0c-2.4,0-4.4-1.6-5-4c-0.6-2.7-1.3-6-2.1-9.3l-1.1-5C19.2,69,14.2,65,8.3,65h-3C4.6,65,4,64.4,4,63.7V45.6c0-0.7,0.6-1.3,1.3-1.3h6.5c0,0,0,0,0,0c0,0,0,0,0,0c0,0,0,0,0,0h11.1v8.4c0,4.5,3.6,8.1,8.1,8.1s8.1-3.6,8.1-8.1v-8.4h49.6c0,0,0,0,0,0s0,0,0,0h7.6c0.3,0,0.7,0.1,0.9,0.4c0.2,0.2,0.4,0.6,0.4,0.9V63.7z"/><path d="M70.1,85.5c-0.2,0.9-1,1.5-1.9,1.5C67,87.1,66,87.1,66,87.1c-1.1,0-2,1-1.9,2.1c0,1.1,0.9,1.9,2,1.9c0,0,0.1,0,0.1,0c0,0,1.1,0,2.2-0.1c2.6-0.1,4.9-1.9,5.6-4.5l1.7-6.3l-3.9-1L70.1,85.5z"/><path d="M42.6,29.4c-0.9-0.6-2.2-0.3-2.8,0.6c-0.6,0.9-0.3,2.2,0.6,2.8l3.3,2.1c0.3,0.2,0.7,0.3,1.1,0.3c0.7,0,1.3-0.3,1.7-0.9c0.6-0.9,0.3-2.2-0.6-2.8L42.6,29.4z"/><path d="M68.4,33c0.1,0,0.3,0,0.4,0l2-0.4c1.1-0.2,1.8-1.3,1.5-2.4c-0.2-1.1-1.3-1.8-2.4-1.5l-2,0.4c-1.1,0.2-1.8,1.3-1.5,2.4C66.7,32.4,67.5,33,68.4,33z"/><path d="M18.8,3.9c2.8,1.1,3.8,2.6,4.1,3.4c-1.8,2.2-2.9,5-2.9,8c0,7,5.7,12.6,12.6,12.6c0,0,0,0,0,0c7,0,12.6-5.7,12.6-12.6c0-1.6-0.3-3.1-0.9-4.6c2.1-0.5,4.2-0.8,6.3-0.8c1.6,0,3.2,0.1,8.1,1.4c1.1,0.3,2.2-0.4,2.4-1.4c0.3-1.1-0.4-2.2-1.4-2.4c-4.9-1.3-7-1.5-9.1-1.5c-2.9,0-5.7,0.5-8.4,1.3c-0.2-0.3-0.5-0.5-0.7-0.8c-2.4-2.4-5.5-3.7-8.9-3.7c0,0,0,0,0,0h0c-2.5,0-4.7,0.7-6.7,1.9c-0.9-1.5-2.6-3.1-5.7-4.4c-1-0.4-2.2,0.1-2.6,1.1C17.2,2.3,17.7,3.4,18.8,3.9z M32.6,6.6C32.6,6.6,32.6,6.6,32.6,6.6c2.3,0,4.5,0.9,6.1,2.5c1.6,1.6,2.5,3.8,2.5,6.1c0,4.8-3.9,8.6-8.6,8.6c0,0,0,0,0,0c-4.7,0-8.6-3.9-8.6-8.6C24,10.4,27.9,6.6,32.6,6.6z"/></svg>