<svg xmlns="http://www.w3.org/2000/svg" viewBox="0 0 91 118.5" width="100%" height="100%" fill="currentColor"><path d="M91,65.3c0-6.1-5-11-11-11h-2.8c1.6-1.9,2.5-4.4,2.5-7c0-6.1-4.9-11-11-11h-3.6c1.1-1.5,1.7-3.4,1.7-5.4c0-5.1-4.2-9.3-9.3-9.3h0h-3.9c1.2-1.7,2-3.7,2-5.9c0-4.6-3.2-8.5-7.5-9.6l0.7-3.6C48.8,1.3,48.1,0.3,47,0c-1.1-0.2-2.1,0.5-2.4,1.6l-0.8,4.2c-4.7,0.8-8.2,4.9-8.2,9.8c0,2.2,0.7,4.3,2,5.9h-3.9c-2.5,0-4.8,1-6.6,2.7c-1.8,1.8-2.7,4.1-2.7,6.6c0,2,0.6,3.8,1.7,5.3h-3.6c0,0,0,0,0,0c-5.3,0-9.9,3.8-10.8,9c-0.6,3.4,0.3,6.7,2.3,9.1H11c-6.1,0-11,5-11,11c0,5.3,3.7,9.7,8.7,10.8l7.7,35.3c0.9,4.1,4.6,7.1,8.8,7.1h40.5c4.2,0,7.8-2.9,8.8-7l7.9-35.4C87.3,75,91,70.6,91,65.3z M39.6,15.6c0-3.3,2.7-5.9,5.9-5.9c0,0,0,0,0,0c0,0,0,0,0,0c3.3,0,5.9,2.7,5.9,5.9c0,3.3-2.6,5.9-5.9,5.9h0C42.2,21.5,39.6,18.8,39.6,15.6z M70.5,110.6c-0.5,2.3-2.5,3.9-4.9,3.9H25.2c-2.3,0-4.4-1.7-4.9-3.9l-7.4-34.2h65.3L70.5,110.6z M80,72.3H11c0,0,0,0,0,0c-3.9,0-7-3.2-7-7c0-3.9,3.2-7,7-7h9.6c0.3,0,0.5-0.1,0.8-0.2h21.8c1.1,0,2-0.9,2-2s-0.9-2-2-2H20.9c-3.7-0.8-6.2-4.4-5.4-8.2c0.6-3.3,3.5-5.7,6.9-5.7c0,0,0,0,0,0H32c0.5,0,1.1-0.2,1.4-0.6c0.4-0.4,0.6-0.9,0.6-1.4l0-0.2c0-0.9-0.7-1.7-1.5-1.9c-2.4-0.6-4.1-2.7-4.1-5.2c0-1.4,0.6-2.8,1.6-3.8c1-1,2.4-1.6,3.8-1.6h11.9c0,0,0,0,0,0s0,0,0,0h11.9c2.9,0,5.3,2.4,5.3,5.4c0,2.5-1.7,4.6-4.1,5.2c-0.1,0-0.3,0.1-0.4,0.1H41c-1.1,0-2,0.9-2,2s0.9,2,2,2h18.1c0,0,0,0,0,0h9.6c3.9,0,7,3.2,7,7c0,3.4-2.4,6.3-5.7,6.9c-0.1,0-0.3,0.1-0.4,0.1h-4.9c-1.1,0-2,0.9-2,2s0.9,2,2,2h5.6c0,0,0,0,0,0H80c3.9,0,7,3.2,7,7S83.9,72.3,80,72.3z"/></svg>