<svg xmlns="http://www.w3.org/2000/svg" width="100%" height="100%" viewBox="0 0 163.365 49" fill="currentColor"><g transform="translate(-321 -2149)"><path d="M2.82,5.575V12.22a2.369,2.369,0,0,0,.622,1.785,2.393,2.393,0,0,0,1.733.6,2.415,2.415,0,0,0,1.747-.6,2.369,2.369,0,0,0,.623-1.785V5.575h1.71V12.19A3.987,3.987,0,0,1,8.7,14.35a3.444,3.444,0,0,1-1.485,1.32A4.79,4.79,0,0,1,5.16,16.1a4.741,4.741,0,0,1-2.048-.435A3.361,3.361,0,0,1,1.65,14.35a4.073,4.073,0,0,1-.54-2.16V5.575Zm19.635,0V16h-1.71V8.86L17.565,16H16.38l-3.2-7.14V16h-1.71V5.575H13.32l3.66,8.175,3.645-8.175Zm8.535,8.3H26.625L25.875,16H24.09L27.825,5.56h1.98L33.54,16h-1.8Zm-.48-1.395L28.815,7.63,27.1,12.475Zm19.53-6.9V16H48.33V8.86L45.15,16H43.965L40.77,8.86V16H39.06V5.575h1.845l3.66,8.175L48.21,5.575Zm8.535,8.3H54.21L53.46,16H51.675L55.41,5.56h1.98L61.125,16h-1.8Zm-.48-1.395L56.4,7.63l-1.71,4.845ZM68.16,16l-2.4-4.17H64.455V16h-1.71V5.575h3.6a4.476,4.476,0,0,1,2.033.42A2.913,2.913,0,0,1,69.622,7.12a3.061,3.061,0,0,1,.412,1.575,3.121,3.121,0,0,1-.592,1.853A3.007,3.007,0,0,1,67.62,11.68L70.2,16Zm-3.7-5.535h1.89a1.983,1.983,0,0,0,1.447-.48,1.728,1.728,0,0,0,.488-1.29,1.668,1.668,0,0,0-.48-1.267,2.039,2.039,0,0,0-1.455-.457h-1.89Zm7.2.3a5.324,5.324,0,0,1,.713-2.745,5.073,5.073,0,0,1,1.935-1.9,5.689,5.689,0,0,1,5.64.135,4.655,4.655,0,0,1,1.882,2.318H79.77a2.755,2.755,0,0,0-1.125-1.23,3.338,3.338,0,0,0-1.665-.4,3.639,3.639,0,0,0-1.845.465A3.236,3.236,0,0,0,73.868,8.74a4.289,4.289,0,0,0-.458,2.025,4.289,4.289,0,0,0,.458,2.025,3.286,3.286,0,0,0,1.267,1.342,3.593,3.593,0,0,0,1.845.472,3.338,3.338,0,0,0,1.665-.4,2.755,2.755,0,0,0,1.125-1.23h2.055a4.616,4.616,0,0,1-1.882,2.31,5.477,5.477,0,0,1-2.963.81,5.388,5.388,0,0,1-2.685-.682,5.089,5.089,0,0,1-1.927-1.9A5.324,5.324,0,0,1,71.655,10.765ZM90.1,13.87H85.74L84.99,16H83.205L86.94,5.56h1.98L92.655,16h-1.8Zm-.48-1.395L87.93,7.63l-1.71,4.845ZM5.88,33.1A5.4,5.4,0,0,1,3.2,32.423a5.057,5.057,0,0,1-1.935-1.905,5.658,5.658,0,0,1,0-5.5,5.073,5.073,0,0,1,1.935-1.9A5.4,5.4,0,0,1,5.88,22.44a5.43,5.43,0,0,1,2.693.682,5.019,5.019,0,0,1,1.927,1.9,5.711,5.711,0,0,1,0,5.5,5,5,0,0,1-1.927,1.905A5.43,5.43,0,0,1,5.88,33.1Zm0-1.485a3.593,3.593,0,0,0,1.845-.473A3.276,3.276,0,0,0,8.993,29.8a4.335,4.335,0,0,0,.457-2.033,4.289,4.289,0,0,0-.457-2.025A3.236,3.236,0,0,0,7.725,24.4,3.639,3.639,0,0,0,5.88,23.94a3.639,3.639,0,0,0-1.845.465A3.236,3.236,0,0,0,2.767,25.74a4.289,4.289,0,0,0-.457,2.025A4.335,4.335,0,0,0,2.767,29.8a3.276,3.276,0,0,0,1.267,1.35A3.593,3.593,0,0,0,5.88,31.62Zm13.14-9.045v1.4H14.6v3.075h3.45v1.4H14.6V33h-1.71V22.575Zm3.3,0V33H20.61V22.575ZM24,27.765a5.324,5.324,0,0,1,.712-2.745,5.073,5.073,0,0,1,1.935-1.9,5.689,5.689,0,0,1,5.64.135,4.655,4.655,0,0,1,1.882,2.318H32.115a2.755,2.755,0,0,0-1.125-1.23,3.338,3.338,0,0,0-1.665-.4,3.639,3.639,0,0,0-1.845.465,3.236,3.236,0,0,0-1.267,1.335,4.71,4.71,0,0,0,0,4.05,3.286,3.286,0,0,0,1.267,1.342,3.593,3.593,0,0,0,1.845.472,3.338,3.338,0,0,0,1.665-.4,2.755,2.755,0,0,0,1.125-1.23H34.17a4.616,4.616,0,0,1-1.882,2.31,5.477,5.477,0,0,1-2.962.81,5.388,5.388,0,0,1-2.685-.682,5.089,5.089,0,0,1-1.927-1.9A5.324,5.324,0,0,1,24,27.765Zm13.875-5.19V33h-1.71V22.575ZM46.41,30.87H42.045L41.295,33H39.51l3.735-10.44h1.98L48.96,33h-1.8Zm-.48-1.395L44.235,24.63l-1.71,4.845Zm6.36,2.145h3.525V33H50.58V22.575h1.71Zm15.93-9.045V33H66.51V25.86L63.33,33H62.145L58.95,25.86V33H57.24V22.575h1.845l3.66,8.175,3.645-8.175Zm3.96,1.38v3.06h3.6v1.4h-3.6V31.6h4.05V33H70.47V22.56h5.76v1.395ZM86.9,33h-1.71L80.04,25.215V33H78.33V22.56h1.71l5.145,7.77V22.56H86.9ZM95.88,22.575v1.4H93.1V33h-1.71V23.97H88.6v-1.4Zm3.435,1.38v3.06h3.6v1.4h-3.6V31.6h4.05V33h-5.76V22.56h5.76v1.395ZM6.7,44.645a2.305,2.305,0,0,1,1.425.885,2.676,2.676,0,0,1,.172,3.1A2.8,2.8,0,0,1,7.11,49.632,4.216,4.216,0,0,1,5.295,50H1.125V39.575H5.1a4.267,4.267,0,0,1,1.83.36,2.686,2.686,0,0,1,1.155.968,2.46,2.46,0,0,1,.39,1.358,2.325,2.325,0,0,1-.48,1.5A2.794,2.794,0,0,1,6.7,44.645Zm-3.87-.69H4.95a2.032,2.032,0,0,0,1.312-.382,1.336,1.336,0,0,0,.473-1.1,1.363,1.363,0,0,0-.473-1.1,1.978,1.978,0,0,0-1.312-.4H2.835Zm2.31,4.65a2.044,2.044,0,0,0,1.365-.42,1.451,1.451,0,0,0,.5-1.17A1.518,1.518,0,0,0,6.48,45.8a2.07,2.07,0,0,0-1.395-.45H2.835V48.6ZM15.99,50l-2.4-4.17H12.285V50h-1.71V39.575h3.6a4.476,4.476,0,0,1,2.033.42,2.914,2.914,0,0,1,1.245,1.125,3.061,3.061,0,0,1,.413,1.575,3.121,3.121,0,0,1-.593,1.853A3.007,3.007,0,0,1,15.45,45.68L18.03,50Zm-3.7-5.535h1.89a1.983,1.983,0,0,0,1.448-.48,1.728,1.728,0,0,0,.488-1.29,1.668,1.668,0,0,0-.48-1.268,2.039,2.039,0,0,0-1.455-.457h-1.89Zm14.055,3.4H21.975L21.225,50H19.44l3.735-10.44h1.98L28.89,50h-1.8Zm-.48-1.4L24.165,41.63l-1.71,4.845Zm8.085,3.63a4.669,4.669,0,0,1-1.89-.368,3.1,3.1,0,0,1-1.32-1.042,2.648,2.648,0,0,1-.48-1.575h1.83a1.652,1.652,0,0,0,.533,1.11,1.888,1.888,0,0,0,1.327.435,2.044,2.044,0,0,0,1.38-.428,1.39,1.39,0,0,0,.495-1.1,1.2,1.2,0,0,0-.307-.855,2.057,2.057,0,0,0-.765-.51,11.536,11.536,0,0,0-1.268-.39,11.875,11.875,0,0,1-1.657-.548,2.739,2.739,0,0,1-1.087-.862,2.493,2.493,0,0,1-.45-1.56,2.773,2.773,0,0,1,.45-1.575A2.874,2.874,0,0,1,32,39.8a4.578,4.578,0,0,1,1.875-.36,3.907,3.907,0,0,1,2.483.757,2.8,2.8,0,0,1,1.072,2.078h-1.89a1.369,1.369,0,0,0-.54-.975,2,2,0,0,0-1.305-.4,1.852,1.852,0,0,0-1.2.375,1.307,1.307,0,0,0-.465,1.08,1.1,1.1,0,0,0,.292.788,2.065,2.065,0,0,0,.743.487,11.527,11.527,0,0,0,1.23.39,12.841,12.841,0,0,1,1.688.57,2.809,2.809,0,0,1,1.11.878,2.522,2.522,0,0,1,.458,1.582,2.845,2.845,0,0,1-.428,1.5,3.084,3.084,0,0,1-1.245,1.133A4.105,4.105,0,0,1,33.945,50.1Zm7.335-10.53V50H39.57V39.575Zm3.96,9.045h3.525V50H43.53V39.575h1.71Zm6.66-7.665v3.06h3.6v1.4H51.9V48.6h4.05V50H50.19V39.56h5.76v1.4Zm7.86-1.38V50H58.05V39.575ZM67.425,50l-2.4-4.17H63.72V50H62.01V39.575h3.6a4.476,4.476,0,0,1,2.033.42,2.913,2.913,0,0,1,1.245,1.125,3.061,3.061,0,0,1,.412,1.575,3.121,3.121,0,0,1-.592,1.853,3.007,3.007,0,0,1-1.823,1.132L69.465,50Zm-3.7-5.535h1.89a1.983,1.983,0,0,0,1.447-.48,1.728,1.728,0,0,0,.488-1.29,1.668,1.668,0,0,0-.48-1.268,2.039,2.039,0,0,0-1.455-.457H63.72Zm14.055,3.4H73.41L72.66,50H70.875L74.61,39.56h1.98L80.325,50h-1.8Zm-.48-1.4L75.6,41.63l-1.71,4.845Zm5.34,3.63a1.1,1.1,0,1,1,0-2.19,1.042,1.042,0,0,1,.765.315,1.123,1.123,0,0,1,0,1.56A1.042,1.042,0,0,1,82.635,50.1Z" transform="translate(381 2146)"/><g transform="translate(10041 4793.394)"><path d="M1,1V48H48V1H1M0,0H49V49H0Z" transform="translate(-9720 -2644.394)"/><path d="M1,1V26.544H26.544V1H1M0,0H27.544V27.544H0Z" transform="translate(-9695.663 -2639.139) rotate(45)"/><path d="M9.5,1A8.5,8.5,0,1,0,18,9.5,8.51,8.51,0,0,0,9.5,1m0-1A9.5,9.5,0,1,1,0,9.5,9.5,9.5,0,0,1,9.5,0Z" transform="translate(-9705 -2629.394)"/></g></g></svg>