<svg xmlns="http://www.w3.org/2000/svg" viewBox="0 0 130.3 130.1" width="100%" height="100%" fill="currentColor"><path d="M60.4,104.9c-0.2-0.2-0.5-0.4-0.7-0.5c3.1-8.1,1.6-14.7-0.3-19c-1.3-2.5-3.7-3.9-6.3-3.7c-2.9,0.2-5.3,2.4-6.4,5.7c0,0,0,0.1,0,0.1c-0.7,2.7-1.7,5.3-3,7.7l-0.8,1.5c-7.1-2-11.2-0.8-15.3,1.9c-2.8,1.8-4.3,4.6-3.5,6.9c0.2,0.7,1.2,2.8,4.6,2.5c1.1-0.1,2.2-0.1,3.4-0.1c-5.1,3.1-10.7,4.7-15.9,4.2c-0.3,0-0.6,0-0.9,0.1c-0.6,0.2-1.2,0.5-1.7,0.8c-0.9-0.1-3.9-2.6-6.3-5.2c-0.7-0.8-1.9-0.9-2.7-0.2l-3.7,3c-0.4,0.3-0.7,0.8-0.7,1.4c-0.1,0.5,0.1,1.1,0.5,1.5c0.6,0.7,5.3,6.2,10.9,6.8c0.4,1.1,1.1,2.3,2,3.6c0.1,0.2,0.3,0.3,0.4,0.4c3.8,2.9,8.5,4.3,13.5,4.3c8.1,0,16.8-3.7,23.7-10.7c0.6-0.6,1.2-1.2,1.7-1.8c1.7,2.5,3.2,5.6,4,9.3c0.6,2.9,2.4,4.8,4.7,4.8c0,0,0,0,0,0c2.2,0,4.8-1.8,5.8-7C68.3,116.9,64.5,108.4,60.4,104.9z M47.2,97c1.4-2.7,2.5-5.6,3.3-8.5c0.6-1.7,1.7-2.8,2.9-2.9c1-0.1,1.9,0.5,2.4,1.5c1.6,3.5,2.8,9.1,0.2,16c-0.4,0-0.7,0.1-1,0.2c-2.8,0.9-5.5,1.6-6.9,2c-0.9-1.7-1.7-3.5-2.4-5.4L47.2,97z M28.2,104c-0.2,0-0.3,0-0.4,0c0.1-0.4,0.6-1.3,1.8-2c2.8-1.8,5.7-3.2,12-1.4c0.4,1.3,1,2.6,1.5,3.9c-2.9-0.3-7-0.6-11-0.6C30.8,103.8,29.5,103.9,28.2,104z M4.9,112.3l0.6-0.5c1.4,1.4,3.2,3,4.9,4.1C8.4,115.2,6.3,113.6,4.9,112.3z M48.2,114.9c-9.5,9.6-23.4,12.3-31.8,6.2c-1.8-2.6-1.7-3.7-1.6-4.1c0.1-0.5,0.7-0.8,1.2-1c7.6,0.6,15.6-2.4,22.3-8c2,0.1,3.8,0.3,5.2,0.4c-0.4,0.4-0.7,0.7-1.1,1.1c-7.1,6.5-14.3,9.5-21,8.8c-1.1-0.1-2.1,0.7-2.2,1.8c-0.1,1.1,0.7,2.1,1.8,2.2c0.7,0.1,1.5,0.1,2.4,0.1c5.4,0,13-2,21.7-9.9c0.9-0.8,1.7-1.6,2.4-2.4c0.7,0.6,1.6,1.5,2.6,2.6C49.6,113.5,49,114.2,48.2,114.9z M63.3,122.4c-0.5,2.8-1.7,3.7-1.9,3.7c0,0,0,0,0,0c-0.1,0-0.5-0.4-0.8-1.5c-1.5-7.7-5.9-13.2-9-16.2c1.3-0.4,2.9-0.8,4.5-1.3c0.2-0.1,0.9,0.1,1.6,0.8C61,110.6,64.1,117.8,63.3,122.4z"/><path d="M86.3,64.3c2.7,2.1,5.4,3.1,8.1,3.1c2.4,0,4.8-0.8,7-2.5c4.7,3.5,10.1,3.3,15.2-0.6c10.3-7.9,16.9-29.1,12-38.4c-5.6-10.6-18.2-9.8-24.6-7.7c0.1-1.2,0.1-2.4,0-3.4c1.5,0.6,3.7,1.2,5.9,1.2c1.4,0,2.9-0.3,4.2-0.9c5.2-2.7,6.2-10.5,6.2-10.8c0.1-0.8-0.3-1.6-1-2c-0.3-0.2-7.2-4-12.5-1.3c-3.1,1.6-4.7,4.9-5.4,7.5c-1-1.2-2.3-2.3-3.9-3.2c-1-0.6-2.2-0.2-2.7,0.7c-0.6,1-0.2,2.2,0.7,2.7c2.7,1.6,5.2,4,4.4,9.8l-0.4-0.1C93.3,16.2,80.1,15,74.3,26C69.4,35.3,76,56.4,86.3,64.3z M108.7,4.5c2.2-1.1,5.4-0.2,7.4,0.7c-0.5,2.1-1.6,5.2-3.8,6.3c-2.2,1.1-5.4,0.2-7.4-0.7C105.3,8.7,106.5,5.6,108.7,4.5z M77.9,27.8c2.9-5.5,8.1-6.9,12.5-6.9c4.1,0,7.6,1.2,7.9,1.3c0,0,0.1,0,0.1,0l2.5,0.7c0,0,0,0,0,0c0,0,0,0,0,0c0.1,0,0.3,0,0.4,0.1c0,0,0,0,0.1,0c0.2,0,0.3,0,0.5-0.1c0,0,0,0,0.1,0l2.5-0.7c0,0,0.1,0,0.1,0c0,0,3.9-1.4,8.4-1.3c5.7,0.1,9.7,2.4,12,6.9c4,7.6-2.2,26.6-10.9,33.3c-4,3.1-7.8,3-11.4-0.3c-0.8-0.7-1.9-0.7-2.7,0c-3.6,3.3-7.3,3.4-11.4,0.3C80,54.5,73.9,35.5,77.9,27.8z"/><path d="M33.7,67.4c6.2,0,22.7-14.6,23.8-32.9c0.3-5.7-1.2-10.3-4.6-13.5c-1.4-1.4-3.1-2.4-4.8-3.1c2.3-2.6,2.9-6.5,3-7c0.1-0.8-0.2-1.5-0.9-1.9c-0.6-0.4-5.7-3.6-9.9-1.7c-0.8-3.9-5-6.7-5.5-7c-0.7-0.4-1.5-0.4-2.1,0c-0.5,0.3-4.6,3-5.5,7c-4.2-1.9-9.4,1.3-9.9,1.7c-0.6,0.4-1,1.2-0.9,1.9c0.1,0.5,0.7,4.4,3,7c-1.7,0.7-3.4,1.7-4.8,3.1c-3.4,3.2-4.9,7.8-4.6,13.5C11,52.8,27.6,67.4,33.7,67.4z M24.4,16.2c-0.4,0-0.8-0.1-1.2-0.2c-1.4-0.6-2.2-2.7-2.6-4.3c1.4-0.7,3.5-1.4,4.9-0.8c0.8,0.5,1.5,1.2,1.9,2.1c0,0.1,0.1,0.2,0.2,0.3c0.5,0.8,1.4,1.3,2.3,1.2c0.9,0,1.7-0.5,2.1-1.3c0.4-0.8,0.4-1.8-0.2-2.6C31.2,10,31,9.3,31,8.7c0-1.5,1.5-3.2,2.7-4.2c1.3,1.1,2.7,2.7,2.7,4.2c0,0.5-0.1,0.9-0.3,1.3c-0.3,0.6-1.1,2.3,0.2,3.5c0.6,0.5,1.6,1,3.3,0c0.3-0.2,0.6-0.5,0.8-0.8c0.4-0.7,0.9-1.3,1.7-1.7c1.4-0.6,3.5,0.1,4.9,0.8c-0.4,1.6-1.3,3.6-2.6,4.3c-0.4,0.2-0.8,0.3-1.2,0.3h-1.5c-2.9-0.3-5.1-0.2-5.7-0.1h-4.3c-0.6-0.1-2.8-0.2-5.7,0.1H24.4z M17.2,23.9c2.5-2.4,6-3.4,8.9-3.7h15.1c2.9,0.4,6.4,1.3,8.9,3.7c2.5,2.4,3.6,5.9,3.3,10.4c-1,16.7-16,29.1-19.8,29.1c-3.8,0-18.8-12.4-19.8-29.1C13.6,29.8,14.8,26.3,17.2,23.9z"/><path d="M26.3,38.2h0.9c1.1,0,2-0.9,2-2s-0.9-2-2-2h-0.9c-1.1,0-2,0.9-2,2S25.2,38.2,26.3,38.2z"/><path d="M33.3,31.3h0.9c1.1,0,2-0.9,2-2s-0.9-2-2-2h-0.9c-1.1,0-2,0.9-2,2S32.2,31.3,33.3,31.3z"/><path d="M34.2,39.4c-1.1,0-2,0.9-2,2s0.9,2,2,2H35c1.1,0,2-0.9,2-2s-0.9-2-2-2H34.2z"/><path d="M26.3,49.8h0.9c1.1,0,2-0.9,2-2s-0.9-2-2-2h-0.9c-1.1,0-2,0.9-2,2S25.2,49.8,26.3,49.8z"/><path d="M41.6,49.8h0.9c1.1,0,2-0.9,2-2s-0.9-2-2-2h-0.9c-1.1,0-2,0.9-2,2S40.5,49.8,41.6,49.8z"/><path d="M110.4,84.8l3-3.6c0.3-0.4,0.5-1,0.5-1.5c-0.1-0.5-0.3-1-0.8-1.4c-1.4-1.1-4.6-2.4-7.7-0.8l-1.7-1.5c-0.8-0.7-1.9-0.7-2.7,0l-1.7,1.5c-3.1-1.6-6.3-0.2-7.7,0.8c-0.4,0.3-0.7,0.8-0.8,1.4c-0.1,0.5,0.1,1.1,0.5,1.5l2.6,3.1c-9.9,3-17.1,11.9-17.1,22.4c0,12.9,11,23.5,24.6,23.5s24.6-10.5,24.6-23.5C126,96.7,119.6,88.2,110.4,84.8z M96.3,80.8C96.3,80.8,96.3,80.8,96.3,80.8c0.7,0,1.3,0.2,2,0.8c0.8,0.6,1.9,0.6,2.6,0l1.5-1.3l1.5,1.3c0.7,0.7,1.9,0.7,2.6,0c0.7-0.6,1.4-0.8,2-0.8l-2.4,2.8c-1.5-0.3-3.1-0.4-4.7-0.4c-1,0-2,0.1-3,0.2L96.3,80.8z M101.5,126.1c-11.3,0-20.6-8.7-20.6-19.5s9.2-19.5,20.6-19.5s20.6,8.7,20.6,19.5S112.8,126.1,101.5,126.1z"/><path d="M112.9,92.4l-1.3-1c-0.9-0.7-2.1-0.5-2.8,0.3s-0.5,2.1,0.3,2.8l1.3,1c0.4,0.3,0.8,0.4,1.2,0.4c0.6,0,1.2-0.3,1.6-0.8C113.9,94.3,113.7,93,112.9,92.4z"/><path d="M114.7,95.9c-1,0.5-1.4,1.7-0.8,2.7l0.6,1.1c0.4,0.7,1.1,1.1,1.8,1.1c0.3,0,0.6-0.1,0.9-0.2c1-0.5,1.4-1.7,0.8-2.7l-0.6-1.1C116.9,95.8,115.7,95.4,114.7,95.9z"/></svg>